<svg width="21" height="21" viewBox="0 0 21 21" fill="none" xmlns="http://www.w3.org/2000/svg">
<path d="M17.1144 2.95405C15.4717 1.3014 13.3035 0.273398 10.9837 0.0472696C8.66397 -0.178859 6.33794 0.411059 4.40668 1.71532C2.47541 3.01958 1.05994 4.95645 0.40429 7.19201C-0.251363 9.42756 -0.106107 11.8217 0.815015 13.9617C0.911019 14.1606 0.94252 14.3845 0.905122 14.6021L0.0240726 18.8351C-0.00987161 18.9974 -0.00294014 19.1656 0.0442442 19.3245C0.0914285 19.4835 0.177387 19.6282 0.294395 19.7457C0.390313 19.8409 0.504519 19.9157 0.630128 19.9656C0.755738 20.0154 0.890151 20.0394 1.02526 20.0359H1.2255L5.51061 19.1753C5.7284 19.1492 5.94925 19.1802 6.15137 19.2654C8.29242 20.1861 10.6878 20.3312 12.9244 19.6759C15.1611 19.0206 17.0989 17.6058 18.4038 15.6755C19.7087 13.7452 20.2989 11.4203 20.0727 9.1017C19.8465 6.78307 18.818 4.61599 17.1645 2.97406L17.1144 2.95405ZM6.03123 11.0297C5.83321 11.0297 5.63964 10.971 5.47499 10.861C5.31035 10.7511 5.18202 10.5948 5.10625 10.4119C5.03047 10.2291 5.01064 10.0279 5.04927 9.83374C5.0879 9.63963 5.18326 9.46132 5.32328 9.32137C5.4633 9.18142 5.64169 9.08611 5.8359 9.0475C6.03012 9.00889 6.23142 9.02871 6.41437 9.10445C6.59731 9.18019 6.75367 9.30845 6.86369 9.47301C6.9737 9.63757 7.03242 9.83105 7.03242 10.029C7.03242 10.2944 6.92694 10.5489 6.73918 10.7366C6.55142 10.9242 6.29676 11.0297 6.03123 11.0297ZM10.036 11.0297C9.83798 11.0297 9.64441 10.971 9.47976 10.861C9.31512 10.7511 9.18679 10.5948 9.11101 10.4119C9.03524 10.2291 9.01541 10.0279 9.05404 9.83374C9.09267 9.63963 9.18803 9.46132 9.32805 9.32137C9.46807 9.18142 9.64646 9.08611 9.84067 9.0475C10.0349 9.00889 10.2362 9.02871 10.4191 9.10445C10.6021 9.18019 10.7584 9.30845 10.8685 9.47301C10.9785 9.63757 11.0372 9.83105 11.0372 10.029C11.0372 10.2944 10.9317 10.5489 10.7439 10.7366C10.5562 10.9242 10.3015 11.0297 10.036 11.0297ZM14.0408 11.0297C13.8427 11.0297 13.6492 10.971 13.4845 10.861C13.3199 10.7511 13.1916 10.5948 13.1158 10.4119C13.04 10.2291 13.0202 10.0279 13.0588 9.83374C13.0974 9.63963 13.1928 9.46132 13.3328 9.32137C13.4728 9.18142 13.6512 9.08611 13.8454 9.0475C14.0397 9.00889 14.241 9.02871 14.4239 9.10445C14.6068 9.18019 14.7632 9.30845 14.8732 9.47301C14.9832 9.63757 15.042 9.83105 15.042 10.029C15.042 10.2944 14.9365 10.5489 14.7487 10.7366C14.561 10.9242 14.3063 11.0297 14.0408 11.0297Z" fill="white"/>
</svg>
