<svg width="24" height="24" viewBox="0 0 24 24" fill="none" xmlns="http://www.w3.org/2000/svg">
<path d="M5 8V13L3 16V19H21V16L19 13V8C19 7.08075 18.8189 6.1705 18.4672 5.32122C18.1154 4.47194 17.5998 3.70026 16.9497 3.05025C16.2997 2.40024 15.5281 1.88463 14.6788 1.53284C13.8295 1.18106 12.9193 1 12 1C11.0807 1 10.1705 1.18106 9.32122 1.53284C8.47194 1.88463 7.70026 2.40024 7.05025 3.05025C6.40024 3.70026 5.88463 4.47194 5.53284 5.32122C5.18106 6.1705 5 7.08075 5 8ZM8.5 19H15.5C15.5 19.4596 15.4095 19.9148 15.2336 20.3394C15.0577 20.764 14.7999 21.1499 14.4749 21.4749C14.1499 21.7999 13.764 22.0577 13.3394 22.2336C12.9148 22.4095 12.4596 22.5 12 22.5C11.5404 22.5 11.0852 22.4095 10.6606 22.2336C10.236 22.0577 9.85013 21.7999 9.52513 21.4749C9.20012 21.1499 8.94231 20.764 8.76642 20.3394C8.59053 19.9148 8.5 19.4596 8.5 19Z" stroke="#B1B1B1" stroke-width="2" stroke-linecap="square"/>
</svg>
