<svg width="24" height="24" viewBox="0 0 24 24" fill="none" xmlns="http://www.w3.org/2000/svg">
<path d="M21.3177 7.14084L20.8237 6.28484C20.4507 5.63684 20.2637 5.31284 19.9457 5.18384C19.6287 5.05384 19.2697 5.15684 18.5507 5.35984L17.3307 5.70384C16.8717 5.80984 16.3907 5.74984 15.9727 5.53384L15.6357 5.33984C15.2766 5.10975 15.0005 4.77093 14.8477 4.37284L14.5137 3.37484C14.2937 2.71484 14.1837 2.38484 13.9227 2.19684C13.6617 2.00684 13.3137 2.00684 12.6197 2.00684H11.5047C10.8107 2.00684 10.4637 2.00684 10.2017 2.19684C9.94069 2.38484 9.83169 2.71484 9.61169 3.37484L9.27769 4.37284C9.12456 4.77108 8.8481 5.10991 8.48869 5.33984L8.15169 5.53484C7.73369 5.74984 7.25169 5.80984 6.79369 5.70484L5.57369 5.35984C4.85469 5.15684 4.49569 5.05484 4.17869 5.18384C3.86069 5.31284 3.67369 5.63684 3.30069 6.28384L2.80769 7.14084C2.45769 7.74884 2.28269 8.05184 2.31669 8.37484C2.35069 8.69884 2.58469 8.95884 3.05269 9.47984L4.08369 10.6328C4.33569 10.9518 4.51469 11.5078 4.51469 12.0078C4.51469 12.5078 4.33569 13.0638 4.08469 13.3828L3.05269 14.5348C2.58469 15.0558 2.35069 15.3168 2.31669 15.6398C2.28269 15.9628 2.45669 16.2668 2.80669 16.8738L3.30069 17.7308C3.67369 18.3778 3.86069 18.7018 4.17869 18.8308C4.49669 18.9598 4.85469 18.8588 5.57369 18.6548L6.79369 18.3108C7.25258 18.2058 7.73381 18.266 8.15269 18.4808L8.48869 18.6748C8.84869 18.9048 9.12469 19.2448 9.27669 19.6428L9.61069 20.6398C9.83069 21.2998 9.94069 21.6298 10.2017 21.8198C10.4637 22.0078 10.8107 22.0078 11.5047 22.0078H12.6197C13.3137 22.0078 13.6617 22.0078 13.9227 21.8188C14.1837 21.6298 14.2937 21.2998 14.5127 20.6398L14.8477 19.6428C14.9997 19.2438 15.2757 18.9048 15.6357 18.6748L15.9717 18.4808C16.3917 18.2658 16.8717 18.2048 17.3317 18.3108L18.5517 18.6548C19.2697 18.8588 19.6287 18.9608 19.9457 18.8318C20.2637 18.7018 20.4507 18.3778 20.8237 17.7308L21.3167 16.8738C21.6667 16.2668 21.8417 15.9638 21.8077 15.6398C21.7737 15.3158 21.5397 15.0558 21.0717 14.5348L20.0407 13.3828C19.7887 13.0628 19.6097 12.5078 19.6097 12.0078C19.6097 11.5078 19.7887 10.9518 20.0397 10.6328L21.0717 9.47984C21.5397 8.95984 21.7737 8.69884 21.8077 8.37484C21.8417 8.05084 21.6677 7.74884 21.3177 7.14084Z" stroke="black" stroke-width="1.5" stroke-linecap="round"/>
<path d="M15.5195 12C15.5195 12.9283 15.1508 13.8185 14.4944 14.4749C13.838 15.1313 12.9478 15.5 12.0195 15.5C11.0913 15.5 10.201 15.1313 9.54466 14.4749C8.88828 13.8185 8.51953 12.9283 8.51953 12C8.51953 11.0717 8.88828 10.1815 9.54466 9.52513C10.201 8.86875 11.0913 8.5 12.0195 8.5C12.9478 8.5 13.838 8.86875 14.4944 9.52513C15.1508 10.1815 15.5195 11.0717 15.5195 12Z" stroke="black" stroke-width="1.5"/>
</svg>
