<svg width="150" height="150" viewBox="0 0 150 150" fill="none" xmlns="http://www.w3.org/2000/svg">
<circle cx="75" cy="75" r="75" fill="#EBF3FE"/>
<path d="M73.6628 39.2894C53.9842 39.2894 37.9485 55.3251 37.9485 75.0037C37.9485 94.6822 53.9842 110.718 73.6628 110.718C93.3413 110.718 109.377 94.6822 109.377 75.0037C109.377 55.3251 93.3413 39.2894 73.6628 39.2894ZM90.7342 66.7894L70.4842 87.0394C69.9842 87.5394 69.3056 87.8251 68.5913 87.8251C67.8771 87.8251 67.1985 87.5394 66.6985 87.0394L56.5913 76.9322C55.5556 75.8965 55.5556 74.1822 56.5913 73.1465C57.6271 72.1108 59.3413 72.1108 60.3771 73.1465L68.5913 81.3608L86.9485 63.0037C87.9842 61.9679 89.6985 61.9679 90.7342 63.0037C91.7699 64.0394 91.7699 65.7179 90.7342 66.7894Z" fill="#069842"/>
</svg>
