<svg width="16" height="16" viewBox="0 0 16 16" fill="none" xmlns="http://www.w3.org/2000/svg">
<path fill-rule="evenodd" clip-rule="evenodd" d="M13.1987 6.78684C12.992 4.66684 11.7387 1.3335 7.86539 1.3335C3.99205 1.3335 2.7387 4.66684 2.53205 6.78684C1.80705 7.062 1.32883 7.75806 1.33205 8.5335V9.46684C1.33205 10.4978 2.1678 11.3335 3.1987 11.3335C4.22964 11.3335 5.06539 10.4977 5.06539 9.46684V8.5335C5.06202 7.77478 4.60139 7.09303 3.8987 6.80684C4.03205 5.58015 4.68539 2.66684 7.86539 2.66684C11.0454 2.66684 11.692 5.58015 11.8254 6.80684C11.1241 7.09365 10.6658 7.77587 10.6654 8.5335V9.46684C10.6668 9.81808 10.767 10.1618 10.9544 10.4589C11.1418 10.756 11.409 10.9943 11.7254 11.1468C11.4454 11.6735 10.732 12.3868 8.9787 12.6002C8.62823 12.068 7.95014 11.8582 7.36033 12.0994C6.77055 12.3407 6.43389 12.9656 6.55689 13.5908C6.67989 14.2161 7.22814 14.6668 7.86539 14.6668C8.11231 14.6655 8.35399 14.5955 8.56351 14.4649C8.77303 14.3342 8.94216 14.148 9.05205 13.9268C11.912 13.6002 12.8254 12.1268 13.112 11.2602C13.8876 11.0089 14.4092 10.282 14.3987 9.46684V8.5335C14.4019 7.75806 13.9237 7.062 13.1987 6.78684ZM3.73205 9.46684C3.73205 9.76137 3.49327 10.0002 3.1987 10.0002C2.90414 10.0002 2.66539 9.7614 2.66539 9.46684V8.5335C2.66485 8.46311 2.67825 8.39332 2.70481 8.32814C2.73137 8.26296 2.77057 8.20369 2.82015 8.15373C2.86973 8.10377 2.9287 8.06412 2.99367 8.03706C3.05865 8.01 3.12834 7.99607 3.19872 7.99607C3.2691 7.99607 3.33879 8.01 3.40376 8.03706C3.46874 8.06412 3.52771 8.10377 3.57729 8.15373C3.62687 8.20369 3.66607 8.26296 3.69263 8.32814C3.71919 8.39332 3.73259 8.46311 3.73205 8.5335V9.46684ZM11.9987 8.5335C11.9987 8.23893 12.2375 8.00015 12.532 8.00015C12.8266 8.00015 13.0654 8.23893 13.0654 8.5335V9.46684C13.0654 9.76137 12.8266 10.0002 12.532 10.0002C12.2375 10.0002 11.9987 9.7614 11.9987 9.46684V8.5335Z" fill="black"/>
</svg>
